<?xml version="1.0" encoding="utf-8"?>
<!-- Generator: Adobe Illustrator 28.0.0, SVG Export Plug-In . SVG Version: 6.00 Build 0)  -->
<svg version="1.1" id="Capa_1" xmlns="http://www.w3.org/2000/svg" xmlns:xlink="http://www.w3.org/1999/xlink" x="0px" y="0px"
	 viewBox="0 0 99.21 99.21" style="enable-background:new 0 0 99.21 99.21;" xml:space="preserve">
<style type="text/css">
	.st0{fill:#FFFFFF;stroke:#000000;stroke-width:0.5833;stroke-miterlimit:10;}
	.st1{fill:none;stroke:#000000;stroke-width:1.1428;stroke-miterlimit:10;}
	.st2{fill:#FFFFFF;}
</style>
<g>
	<g>
		<g>
			<g>
				<polygon class="st0" points="28.62,99.23 -0.44,70.17 -0.44,29.07 28.62,0.01 69.72,0.01 98.77,29.07 98.77,70.17 69.72,99.23 
									"/>
				<polygon class="st1" points="30.66,94.3 4.49,68.13 4.49,31.11 30.66,4.94 67.68,4.94 93.85,31.11 93.85,68.13 67.68,94.3 				
					"/>
				<polygon points="32.52,89.82 8.97,66.27 8.97,32.97 32.52,9.42 65.82,9.42 89.37,32.97 89.37,66.27 65.82,89.82 				"/>
			</g>
			<g>
				<g>
					<path class="st2" d="M40.05,85.1H39.3v-0.45c-0.12,0.17-0.27,0.3-0.44,0.39c-0.17,0.09-0.34,0.13-0.51,0.13
						c-0.35,0-0.65-0.14-0.9-0.42c-0.25-0.28-0.37-0.68-0.37-1.18c0-0.52,0.12-0.91,0.36-1.18c0.24-0.27,0.55-0.4,0.92-0.4
						c0.34,0,0.64,0.14,0.88,0.42V80.9h0.81V85.1z M37.89,83.51c0,0.33,0.05,0.56,0.14,0.71c0.13,0.21,0.31,0.32,0.54,0.32
						c0.19,0,0.34-0.08,0.47-0.24c0.13-0.16,0.2-0.39,0.2-0.71c0-0.35-0.06-0.6-0.19-0.76s-0.29-0.23-0.48-0.23
						c-0.19,0-0.35,0.08-0.48,0.23C37.96,82.98,37.89,83.21,37.89,83.51z"/>
					<path class="st2" d="M42.6,84.13l0.8,0.13c-0.1,0.29-0.27,0.52-0.49,0.67c-0.22,0.15-0.5,0.23-0.84,0.23
						c-0.53,0-0.92-0.17-1.18-0.52c-0.2-0.28-0.3-0.63-0.3-1.05c0-0.5,0.13-0.9,0.4-1.19c0.26-0.29,0.6-0.43,1-0.43
						c0.45,0,0.81,0.15,1.07,0.45c0.26,0.3,0.39,0.76,0.38,1.38h-2.02c0.01,0.24,0.07,0.42,0.2,0.56s0.28,0.2,0.47,0.2
						c0.13,0,0.23-0.03,0.32-0.1C42.5,84.4,42.56,84.29,42.6,84.13z M42.65,83.32c-0.01-0.23-0.07-0.41-0.18-0.53
						c-0.11-0.12-0.25-0.18-0.42-0.18c-0.18,0-0.32,0.06-0.44,0.19c-0.11,0.13-0.17,0.3-0.17,0.52H42.65z"/>
					<path class="st2" d="M45.53,83.73l0.83-0.08c0.05,0.28,0.15,0.48,0.3,0.61c0.15,0.13,0.36,0.2,0.62,0.2
						c0.27,0,0.48-0.06,0.62-0.17c0.14-0.12,0.21-0.25,0.21-0.41c0-0.1-0.03-0.18-0.09-0.25c-0.06-0.07-0.16-0.13-0.31-0.18
						c-0.1-0.03-0.33-0.1-0.68-0.18c-0.46-0.11-0.78-0.25-0.96-0.42c-0.26-0.23-0.39-0.51-0.39-0.85c0-0.21,0.06-0.41,0.18-0.6
						c0.12-0.19,0.3-0.33,0.53-0.43c0.23-0.1,0.5-0.15,0.83-0.15c0.53,0,0.93,0.12,1.19,0.35c0.27,0.23,0.41,0.54,0.42,0.93
						l-0.85,0.04c-0.04-0.22-0.11-0.37-0.23-0.47c-0.12-0.09-0.3-0.14-0.54-0.14c-0.25,0-0.44,0.05-0.58,0.15
						c-0.09,0.06-0.14,0.15-0.14,0.26c0,0.1,0.04,0.18,0.13,0.26c0.11,0.09,0.37,0.18,0.78,0.28c0.41,0.1,0.72,0.2,0.92,0.3
						c0.2,0.1,0.35,0.25,0.47,0.43c0.11,0.18,0.17,0.4,0.17,0.67c0,0.24-0.07,0.47-0.2,0.68c-0.13,0.21-0.32,0.37-0.57,0.47
						c-0.24,0.1-0.55,0.15-0.91,0.15c-0.53,0-0.94-0.12-1.23-0.37C45.76,84.56,45.59,84.21,45.53,83.73z"/>
					<path class="st2" d="M50.26,82.99l-0.73-0.13c0.08-0.29,0.22-0.51,0.42-0.65c0.2-0.14,0.5-0.21,0.9-0.21
						c0.36,0,0.63,0.04,0.8,0.13c0.18,0.09,0.3,0.19,0.37,0.32c0.07,0.13,0.11,0.37,0.11,0.72l-0.01,0.94
						c0,0.27,0.01,0.47,0.04,0.59c0.03,0.13,0.07,0.26,0.15,0.41h-0.8c-0.02-0.05-0.05-0.13-0.08-0.24
						c-0.01-0.05-0.02-0.08-0.03-0.09c-0.14,0.13-0.28,0.23-0.44,0.3c-0.16,0.07-0.32,0.1-0.5,0.1c-0.31,0-0.56-0.09-0.74-0.26
						c-0.18-0.17-0.27-0.39-0.27-0.65c0-0.17,0.04-0.33,0.12-0.46c0.08-0.14,0.2-0.24,0.35-0.31c0.15-0.07,0.36-0.13,0.64-0.19
						c0.38-0.07,0.64-0.14,0.78-0.2v-0.08c0-0.16-0.04-0.27-0.11-0.33c-0.08-0.07-0.22-0.1-0.43-0.1c-0.14,0-0.26,0.03-0.34,0.08
						C50.38,82.74,50.31,82.84,50.26,82.99z M51.34,83.64c-0.1,0.03-0.27,0.08-0.49,0.12c-0.22,0.05-0.37,0.09-0.44,0.14
						c-0.1,0.07-0.16,0.17-0.16,0.28c0,0.11,0.04,0.21,0.13,0.29c0.08,0.08,0.19,0.12,0.32,0.12c0.15,0,0.28-0.05,0.42-0.14
						c0.1-0.07,0.16-0.16,0.19-0.27c0.02-0.07,0.03-0.2,0.03-0.39V83.64z"/>
					<path class="st2" d="M52.93,85.1V80.9h0.81v4.21H52.93z"/>
					<path class="st2" d="M56.57,85.1v-0.46c-0.11,0.16-0.26,0.29-0.44,0.38c-0.18,0.09-0.37,0.14-0.57,0.14
						c-0.2,0-0.39-0.04-0.55-0.14c-0.16-0.09-0.28-0.22-0.35-0.38c-0.07-0.16-0.11-0.39-0.11-0.67v-1.93h0.81v1.4
						c0,0.43,0.01,0.69,0.04,0.79c0.03,0.1,0.08,0.17,0.16,0.23c0.08,0.06,0.18,0.08,0.3,0.08c0.14,0,0.26-0.04,0.37-0.11
						c0.11-0.08,0.18-0.17,0.22-0.28c0.04-0.11,0.06-0.39,0.06-0.82v-1.29h0.81v3.05H56.57z"/>
					<path class="st2" d="M60.94,85.1H60.2v-0.45c-0.12,0.17-0.27,0.3-0.44,0.39c-0.17,0.09-0.34,0.13-0.51,0.13
						c-0.35,0-0.65-0.14-0.9-0.42c-0.25-0.28-0.37-0.68-0.37-1.18c0-0.52,0.12-0.91,0.36-1.18c0.24-0.27,0.55-0.4,0.92-0.4
						c0.34,0,0.63,0.14,0.88,0.42V80.9h0.81V85.1z M58.79,83.51c0,0.33,0.04,0.56,0.13,0.71c0.13,0.21,0.31,0.32,0.55,0.32
						c0.19,0,0.34-0.08,0.47-0.24c0.13-0.16,0.2-0.39,0.2-0.71c0-0.35-0.06-0.6-0.19-0.76c-0.13-0.15-0.29-0.23-0.49-0.23
						c-0.19,0-0.35,0.08-0.48,0.23C58.86,82.98,58.79,83.21,58.79,83.51z"/>
				</g>
				<g>
					<path class="st2" d="M35.61,79.98v-4.21h1.27l0.76,2.87l0.75-2.87h1.27v4.21h-0.79v-3.31l-0.84,3.31h-0.82l-0.83-3.31v3.31
						H35.61z"/>
					<path class="st2" d="M40.51,76.52v-0.75h0.81v0.75H40.51z M40.51,79.98v-3.05h0.81v3.05H40.51z"/>
					<path class="st2" d="M44.92,79.98h-0.81v-1.56c0-0.33-0.02-0.54-0.05-0.64s-0.09-0.17-0.17-0.23
						c-0.08-0.05-0.17-0.08-0.28-0.08c-0.14,0-0.26,0.04-0.38,0.11c-0.11,0.08-0.19,0.18-0.23,0.3c-0.04,0.13-0.06,0.36-0.06,0.7
						v1.38h-0.81v-3.05h0.75v0.45c0.27-0.34,0.6-0.52,1-0.52c0.18,0,0.34,0.03,0.49,0.1c0.15,0.06,0.26,0.15,0.33,0.25
						c0.08,0.1,0.13,0.21,0.16,0.34c0.03,0.13,0.04,0.31,0.04,0.54V79.98z"/>
					<path class="st2" d="M45.74,76.52v-0.75h0.81v0.75H45.74z M45.74,79.98v-3.05h0.81v3.05H45.74z"/>
					<path class="st2" d="M47.09,79.11l0.81-0.12c0.03,0.16,0.1,0.28,0.21,0.36c0.1,0.08,0.25,0.12,0.44,0.12
						c0.21,0,0.37-0.04,0.47-0.11c0.07-0.05,0.11-0.13,0.11-0.22c0-0.06-0.02-0.11-0.06-0.15c-0.04-0.04-0.13-0.07-0.27-0.11
						c-0.65-0.14-1.06-0.27-1.24-0.39c-0.24-0.16-0.36-0.39-0.36-0.69c0-0.26,0.1-0.49,0.31-0.67c0.21-0.18,0.53-0.27,0.97-0.27
						c0.42,0,0.73,0.07,0.93,0.2c0.2,0.14,0.34,0.34,0.42,0.6l-0.76,0.14c-0.03-0.12-0.09-0.21-0.19-0.27
						c-0.09-0.06-0.22-0.09-0.39-0.09c-0.21,0-0.36,0.03-0.46,0.09c-0.06,0.04-0.09,0.1-0.09,0.16c0,0.06,0.03,0.11,0.08,0.15
						c0.07,0.05,0.32,0.13,0.75,0.23c0.43,0.1,0.73,0.22,0.9,0.36c0.17,0.14,0.25,0.34,0.25,0.6c0,0.28-0.12,0.52-0.35,0.72
						c-0.23,0.2-0.58,0.3-1.04,0.3c-0.42,0-0.74-0.08-0.99-0.25C47.32,79.63,47.16,79.4,47.09,79.11z"/>
					<path class="st2" d="M52.03,76.93v0.64h-0.55v1.23c0,0.25,0.01,0.39,0.02,0.43c0.01,0.04,0.03,0.07,0.07,0.1
						c0.04,0.03,0.08,0.04,0.14,0.04c0.07,0,0.18-0.03,0.32-0.08l0.07,0.63c-0.19,0.08-0.4,0.12-0.64,0.12
						c-0.15,0-0.28-0.02-0.39-0.07c-0.12-0.05-0.2-0.11-0.26-0.19c-0.05-0.08-0.09-0.18-0.11-0.31c-0.02-0.09-0.03-0.28-0.03-0.57
						v-1.33H50.3v-0.64h0.37v-0.61l0.81-0.47v1.08H52.03z"/>
					<path class="st2" d="M54.36,79.01l0.8,0.13c-0.1,0.29-0.27,0.52-0.49,0.67c-0.22,0.15-0.5,0.23-0.84,0.23
						c-0.53,0-0.92-0.17-1.18-0.52c-0.2-0.28-0.3-0.63-0.3-1.05c0-0.51,0.13-0.9,0.4-1.19c0.26-0.29,0.6-0.43,1-0.43
						c0.45,0,0.81,0.15,1.07,0.45c0.26,0.3,0.39,0.76,0.38,1.38h-2.02c0.01,0.24,0.07,0.42,0.2,0.56c0.12,0.13,0.28,0.2,0.47,0.2
						c0.13,0,0.23-0.03,0.32-0.1C54.25,79.27,54.32,79.16,54.36,79.01z M54.4,78.19c-0.01-0.23-0.07-0.41-0.18-0.53
						c-0.11-0.12-0.25-0.18-0.42-0.18c-0.18,0-0.32,0.06-0.44,0.19c-0.11,0.13-0.17,0.3-0.17,0.52H54.4z"/>
					<path class="st2" d="M56.63,79.98h-0.81v-3.05h0.75v0.43c0.13-0.2,0.24-0.34,0.35-0.4c0.1-0.07,0.22-0.1,0.35-0.1
						c0.18,0,0.36,0.05,0.53,0.15l-0.25,0.7c-0.14-0.09-0.26-0.13-0.38-0.13c-0.11,0-0.21,0.03-0.29,0.09
						c-0.08,0.06-0.14,0.17-0.18,0.34c-0.05,0.16-0.07,0.5-0.07,1.02V79.98z"/>
					<path class="st2" d="M58.15,76.52v-0.75h0.81v0.75H58.15z M58.15,79.98v-3.05h0.81v3.05H58.15z"/>
					<path class="st2" d="M59.59,78.41c0-0.27,0.07-0.53,0.2-0.78c0.13-0.25,0.32-0.44,0.56-0.57c0.24-0.13,0.51-0.2,0.81-0.2
						c0.46,0,0.84,0.15,1.13,0.45c0.29,0.3,0.44,0.68,0.44,1.13c0,0.46-0.15,0.84-0.45,1.15c-0.3,0.3-0.67,0.45-1.12,0.45
						c-0.28,0-0.55-0.06-0.8-0.19c-0.25-0.13-0.45-0.31-0.58-0.56C59.66,79.06,59.59,78.76,59.59,78.41z M60.42,78.45
						c0,0.3,0.07,0.53,0.22,0.69c0.14,0.16,0.32,0.24,0.53,0.24c0.21,0,0.39-0.08,0.53-0.24c0.14-0.16,0.21-0.39,0.21-0.7
						c0-0.3-0.07-0.53-0.21-0.69c-0.14-0.16-0.32-0.24-0.53-0.24c-0.21,0-0.39,0.08-0.53,0.24C60.49,77.92,60.42,78.15,60.42,78.45z
						"/>
				</g>
			</g>
		</g>
	</g>
	<g>
		<path class="st2" d="M34.15,45.71h-1.7l-0.68-1.76h-3.09l-0.64,1.76h-1.66l3.01-7.74h1.65L34.15,45.71z M31.27,42.65l-1.07-2.87
			l-1.04,2.87H31.27z"/>
		<path class="st2" d="M35.02,45.71v-7.67h1.56v6.37h3.88v1.3H35.02z"/>
		<path class="st2" d="M42.52,45.71v-6.43h-2.3v-1.31h6.15v1.31h-2.29v6.43H42.52z"/>
		<path class="st2" d="M46.86,41.89c0-0.79,0.12-1.45,0.35-1.98c0.18-0.39,0.42-0.75,0.72-1.06c0.3-0.31,0.64-0.55,1-0.7
			c0.48-0.2,1.04-0.31,1.67-0.31c1.14,0,2.05,0.35,2.74,1.06c0.68,0.71,1.03,1.69,1.03,2.95c0,1.25-0.34,2.23-1.02,2.93
			c-0.68,0.71-1.59,1.06-2.72,1.06c-1.15,0-2.07-0.35-2.74-1.05C47.2,44.09,46.86,43.12,46.86,41.89z M48.47,41.84
			c0,0.88,0.2,1.54,0.61,1.99s0.92,0.68,1.54,0.68c0.62,0,1.13-0.22,1.53-0.67c0.4-0.45,0.6-1.12,0.6-2.02
			c0-0.89-0.19-1.55-0.58-1.98c-0.39-0.44-0.91-0.65-1.55-0.65c-0.64,0-1.16,0.22-1.56,0.66C48.67,40.28,48.47,40.95,48.47,41.84z"
			/>
		<path class="st2" d="M58.59,45.71v-7.74h5.74v1.31h-4.17V41h3.88v1.3h-3.88v2.11h4.32v1.3H58.59z"/>
		<path class="st2" d="M65.81,45.71v-7.74h1.52l3.17,5.17v-5.17h1.45v7.74h-1.57l-3.12-5.05v5.05H65.81z"/>
	</g>
	<g>
		<path class="st2" d="M22.62,61.23h-2.05l-0.82-2.12h-3.73l-0.77,2.12h-2l3.64-9.34h1.99L22.62,61.23z M19.15,57.54l-1.29-3.47
			l-1.26,3.47H19.15z"/>
		<path class="st2" d="M22.81,61.23v-1.7l4.9-6.06h-4.35v-1.58h6.83v1.47l-5.11,6.3h5.31v1.57H22.81z"/>
		<path class="st2" d="M31.57,51.89h1.89v5.06c0,0.8,0.02,1.32,0.07,1.56c0.08,0.38,0.27,0.69,0.58,0.92s0.72,0.35,1.25,0.35
			c0.54,0,0.94-0.11,1.21-0.33c0.27-0.22,0.44-0.49,0.49-0.81c0.06-0.32,0.08-0.85,0.08-1.59v-5.17h1.89v4.9
			c0,1.12-0.05,1.91-0.15,2.38c-0.1,0.46-0.29,0.85-0.56,1.17c-0.27,0.32-0.64,0.57-1.1,0.76c-0.46,0.19-1.06,0.28-1.8,0.28
			c-0.89,0-1.57-0.1-2.03-0.31c-0.46-0.21-0.82-0.47-1.09-0.8c-0.27-0.33-0.44-0.67-0.53-1.04c-0.12-0.54-0.18-1.32-0.18-2.37V51.89
			z M34.14,51.36l0.88-1.9h2.01l-1.75,1.9H34.14z"/>
		<path class="st2" d="M46.98,57.8l1.83,0.58c-0.28,1.02-0.75,1.78-1.4,2.27c-0.65,0.49-1.48,0.74-2.48,0.74
			c-1.24,0-2.26-0.42-3.06-1.27c-0.8-0.85-1.2-2.01-1.2-3.47c0-1.55,0.4-2.76,1.2-3.62c0.8-0.86,1.86-1.29,3.17-1.29
			c1.14,0,2.07,0.34,2.78,1.01c0.42,0.4,0.74,0.97,0.96,1.72l-1.87,0.45c-0.11-0.48-0.34-0.87-0.69-1.15
			c-0.35-0.28-0.78-0.42-1.28-0.42c-0.69,0-1.25,0.25-1.68,0.75c-0.43,0.5-0.65,1.3-0.65,2.41c0,1.18,0.21,2.02,0.64,2.52
			c0.42,0.5,0.98,0.75,1.66,0.75c0.5,0,0.93-0.16,1.29-0.48C46.57,58.98,46.83,58.48,46.98,57.8z"/>
		<path class="st2" d="M58.85,61.23H56.8l-0.82-2.12h-3.73l-0.77,2.12h-2l3.64-9.34h1.99L58.85,61.23z M55.38,57.54l-1.29-3.47
			l-1.26,3.47H55.38z"/>
		<path class="st2" d="M59.86,61.23v-9.34h3.97c1,0,1.72,0.08,2.18,0.25c0.45,0.17,0.81,0.47,1.09,0.89
			c0.27,0.43,0.41,0.92,0.41,1.47c0,0.7-0.21,1.28-0.62,1.74c-0.41,0.46-1.03,0.74-1.85,0.86c0.41,0.24,0.74,0.5,1.01,0.78
			c0.27,0.28,0.62,0.79,1.07,1.52l1.14,1.82H66l-1.36-2.03c-0.48-0.73-0.82-1.18-0.99-1.37c-0.18-0.19-0.37-0.32-0.57-0.39
			c-0.2-0.07-0.52-0.11-0.95-0.11h-0.38v3.9H59.86z M61.74,55.84h1.39c0.9,0,1.47-0.04,1.69-0.11c0.23-0.08,0.4-0.21,0.53-0.39
			c0.13-0.19,0.19-0.42,0.19-0.7c0-0.31-0.08-0.57-0.25-0.76c-0.17-0.19-0.4-0.32-0.71-0.37c-0.15-0.02-0.61-0.03-1.38-0.03h-1.47
			V55.84z"/>
		<path class="st2" d="M69.27,61.23v-9.34h6.92v1.58h-5.04v2.07h4.69v1.57h-4.69v2.54h5.22v1.57H69.27z"/>
		<path class="st2" d="M77.49,58.19l1.83-0.18c0.11,0.62,0.33,1.07,0.67,1.36s0.79,0.43,1.37,0.43c0.61,0,1.06-0.13,1.37-0.39
			c0.31-0.26,0.46-0.56,0.46-0.9c0-0.22-0.06-0.41-0.19-0.56c-0.13-0.15-0.36-0.29-0.68-0.4c-0.22-0.08-0.72-0.21-1.51-0.41
			c-1.01-0.25-1.72-0.56-2.13-0.92c-0.57-0.51-0.86-1.14-0.86-1.88c0-0.48,0.13-0.92,0.4-1.33c0.27-0.41,0.66-0.73,1.17-0.95
			c0.51-0.22,1.12-0.32,1.84-0.32c1.17,0,2.05,0.26,2.65,0.77c0.59,0.51,0.9,1.2,0.93,2.06l-1.89,0.08
			c-0.08-0.48-0.25-0.82-0.52-1.03c-0.27-0.21-0.66-0.32-1.19-0.32c-0.55,0-0.98,0.11-1.29,0.34c-0.2,0.14-0.3,0.34-0.3,0.58
			c0,0.22,0.09,0.41,0.28,0.57c0.24,0.2,0.82,0.41,1.73,0.62c0.92,0.22,1.6,0.44,2.04,0.67c0.44,0.23,0.78,0.55,1.03,0.95
			c0.25,0.4,0.37,0.9,0.37,1.49c0,0.54-0.15,1.04-0.45,1.5c-0.3,0.47-0.72,0.81-1.26,1.04c-0.54,0.23-1.22,0.34-2.03,0.34
			c-1.18,0-2.09-0.27-2.72-0.82C77.99,60.03,77.62,59.24,77.49,58.19z"/>
	</g>
</g>
</svg>
